// Generated by hsmgen 2.0.1
@startuml
title <b>telemetry_file_sink_sm
[*] --> Not_Init
state Not_Init
state Init
state Wait_Storage
state Started
state Stopped
state Wait_Cleanup

Not_Init --> Init: <b>init</b> \n
Init --> Wait_Storage: <b>start</b> \n/ reload_config
Init -[dotted,#blue]-> Init: <b>__periodic</b> \n/ reload_config
Wait_Storage --> Started: <b>__periodic</b> [is_storage_available]\n/ prepare_file_telemetry
Started --> Stopped: <b>stop</b> \n
Started -[dotted,#blue]-> Started: <b>__periodic</b> [is_storage_available]\n/ store_telemetry
Started --> Wait_Storage: <b>__periodic</b> [is_storage_blocked]\n
Started --> Wait_Storage: <b>restart</b> \n/ clean_and_reload_cfg
Started --> Wait_Cleanup: <b>file_cleanup_triggered</b> \n
Stopped --> Wait_Storage: <b>start</b> \n
Stopped -[dotted,#blue]-> Stopped: <b>__periodic</b> \n/ reload_config
Wait_Cleanup --> Wait_Storage: <b>__periodic</b> [is_cleanup_finished]\n
@enduml
