// Generated by hsmgen 2.0.1
@startuml
title <b>telemetry_sm
[*] --> Not_Init
state Not_Init
state Init
state Started
state Stopped

Not_Init --> Init: <b>init</b> \n
Init --> Started: <b>start</b> \n
Init -[dotted,#blue]-> Init: <b>__periodic</b> \n/ reload_config
Started --> Stopped: <b>stop</b> \n/ stop_file_telemetry
Started --> Stopped: <b>__periodic</b> [is_hold_time_elapsed]\n/ stop_file_telemetry
Started -[dotted,#blue]-> Started: <b>__periodic</b> \n/ collect_telemetry
Stopped --> Started: <b>start</b> \n/ start_file_telemetry
Stopped --> Started: <b>__periodic</b> [is_hold_time_elapsed]\n/ start_file_telemetry
Stopped -[dotted,#blue]-> Stopped: <b>__periodic</b> \n/ reload_config
@enduml
