// Generated by hsmgen 2.0.0
@startuml
title <b>cubeadcs_gen2_sm
[*] --> Init
state Init
state FirmwareUpdate
state EventMarkerAcquisition
state Idle
state Check
state EventDownload
state StateChange
state FDIR

Init --> FirmwareUpdate: <b>__periodic</b> [fw_upd_requested]\n
Init --> EventMarkerAcquisition: <b>__periodic</b> [adcs_is_in_app]\n
Init --> FDIR: <b>__periodic</b> [bootloader_timeout]\n
FirmwareUpdate --> Init: <b>__periodic</b> [fw_upd_completed]\n
EventMarkerAcquisition --> Check: <b>event_marker_acquired</b> \n
EventMarkerAcquisition --> FDIR: <b>request_fdir</b> \n
Idle --> Check: <b>__periodic</b> [is_time_to_check_expired]\n
Idle --> EventDownload: <b>__periodic</b> [is_time_to_event_download_expired]\n
Idle --> StateChange: <b>request_a_state_change</b> [is_state_change_valid]\n
Check --> FDIR: <b>request_fdir</b> \n
Check --> Idle: <b>check_completed</b> \n
Check --> Init: <b>jump_to_bl</b> \n
EventDownload --> Idle: <b>event_download_completed</b> \n
EventDownload --> FDIR: <b>request_fdir</b> \n
StateChange --> FDIR: <b>request_fdir</b> \n
StateChange --> Idle: <b>state_change_completed</b> \n
FDIR --> Idle: <b>fdir_completed</b> \n/ notify_users
FDIR --> Init: <b>adcs_reseted</b> \n
@enduml
