// Generated by hsmgen 2.0.1
@startuml
title <b>sdr_sm
[*] --> inactive
state inactive
state booting
state syncing
state ready
state busy

inactive --> booting: <b>boot</b> [is_device_init]\n
booting --> syncing: <b>__periodic</b> [is_valid_response]\n
booting -[dotted,#blue]-> booting: <b>__periodic</b> [is_poll_time_elapsed]\n/ poll_device
syncing --> ready: <b>__periodic</b> [is_data_ready_to_sync]\n/ sync_time
syncing --> ready: <b>__periodic</b> [is_sync_timeout_elapsed]\n
ready --> busy: <b>__periodic</b> [is_operation_pending]\n
busy --> ready: <b>__periodic</b> [is_operation_executed]\n
@enduml
